<?xml version="1.0" encoding="utf-8"?>
<!-- Generator: Adobe Illustrator 23.1.0, SVG Export Plug-In . SVG Version: 6.00 Build 0)  -->
<svg width="19" version="1.1" id="Capa_1" xmlns="http://www.w3.org/2000/svg" xmlns:xlink="http://www.w3.org/1999/xlink" x="0px" y="0px"
	 viewBox="0 0 191.14 143.57" style="enable-background:new 0 0 191.14 143.57;" xml:space="preserve">
<style type="text/css">
	.st0{fill:#02457A;}
</style>
<g>
	<path class="st0" d="M164.03,4.75H26.54c-12.82,0-23.25,10.43-23.25,23.25v88.27c0,12.82,10.43,23.25,23.25,23.25h137.49
		c12.82,0,23.25-10.43,23.25-23.25V28.01C187.29,15.19,176.85,4.75,164.03,4.75z M160.4,19.75l-65.11,50.3l-65.11-50.3H160.4z
		 M164.03,124.53H26.54c-4.55,0-8.25-3.7-8.25-8.25V29.53L90.7,85.47c1.35,1.04,2.97,1.56,4.58,1.56s3.24-0.52,4.58-1.56
		l72.42-55.94v86.75C172.29,120.83,168.58,124.53,164.03,124.53z"/>
</g>
</svg>
