<?xml version="1.0" encoding="utf-8"?>
<!-- Generator: Adobe Illustrator 23.1.0, SVG Export Plug-In . SVG Version: 6.00 Build 0)  -->
<svg version="1.1" id="Capa_1" xmlns="http://www.w3.org/2000/svg" xmlns:xlink="http://www.w3.org/1999/xlink" x="0px" y="0px"
	 viewBox="0 0 512 512" style="enable-background:new 0 0 512 512;" xml:space="preserve">
<style type="text/css">
	.st0{fill:#02457A;}
</style>
<g>
	<g>
		<path class="st0" d="M255.15,468.63H63.79c-11.74,0-21.26-9.53-21.26-21.26V64.64c0-11.74,9.53-21.26,21.26-21.26h191.36
			c11.76,0,21.26-9.5,21.26-21.26s-9.5-21.26-21.26-21.26H63.79C28.62,0.85,0,29.47,0,64.64v382.72c0,35.17,28.62,63.79,63.79,63.79
			h191.36c11.76,0,21.26-9.5,21.26-21.26S266.91,468.63,255.15,468.63z"/>
	</g>
</g>
<g>
	<g>
		<path class="st0" d="M505.66,240.86L376.39,113.29c-8.33-8.25-21.82-8.14-30.07,0.21s-8.17,21.81,0.21,30.06l92.39,91.17H191.36
			c-11.76,0-21.26,9.5-21.26,21.26s9.5,21.26,21.26,21.26h247.56l-92.39,91.17c-8.38,8.25-8.44,21.71-0.21,30.07
			c4.17,4.21,9.65,6.34,15.14,6.34c5.4,0,10.8-2.04,14.93-6.12l129.28-127.57c4.04-4,6.34-9.44,6.34-15.14
			C512,250.3,509.73,244.88,505.66,240.86z"/>
	</g>
</g>
</svg>
