<svg xmlns="http://www.w3.org/2000/svg" width="28.418" height="25.821" viewBox="0 0 28.418 25.821">
    <g>
        <g>
            <g>
                <path fill="#201b56" d="M39.416 43.531a3.966 3.966 0 0 1-7.919 0h-6.174A1.321 1.321 0 0 1 24 42.211v-1.323a2.645 2.645 0 0 1 2.645-2.644v-5.288a8.815 8.815 0 0 1 5.727-8.256v-.116a3.084 3.084 0 0 1 6.169 0v.116a8.816 8.816 0 0 1 5.728 8.257v5.287a2.648 2.648 0 0 1 2.644 2.645v1.323a1.324 1.324 0 0 1-1.323 1.321zm-1.767 0h-4.385a2.2 2.2 0 0 0 4.385 0zm7.5-1.763v-.881a.884.884 0 0 0-.882-.881 1.76 1.76 0 0 1-1.762-1.763v-5.287a7.052 7.052 0 0 0-5.091-6.774L36.778 26v-1.418a1.322 1.322 0 0 0-2.644 0V26l-.637.184a7.051 7.051 0 0 0-5.091 6.774v5.287a1.763 1.763 0 0 1-1.762 1.763.883.883 0 0 0-.882.881v.881z" transform="translate(-537.021 -63.222) translate(513.021 41.767) translate(24 21.5) translate(-24 -21.5)"/>
            </g>
            <g fill="#fff" stroke="#e13b56" transform="translate(-537.021 -63.222) translate(513.021 41.767) translate(38.418 21.455)">
                <circle cx="7" cy="7" r="7" stroke="none"/>
                <circle cx="7" cy="7" r="6.5" fill="none"/>
            </g>
        </g>
    </g>
</svg>
