<?xml version="1.0" encoding="utf-8"?>
<!-- Generator: Adobe Illustrator 23.1.0, SVG Export Plug-In . SVG Version: 6.00 Build 0)  -->
<svg width="14" version="1.1" id="_x31__x2C_5" xmlns="http://www.w3.org/2000/svg" xmlns:xlink="http://www.w3.org/1999/xlink" x="0px"
	 y="0px" viewBox="0 0 402 512" style="enable-background:new 0 0 402 512;" xml:space="preserve">
<style type="text/css">
	.st0{fill:#003056;}
</style>
<path class="st0" d="M347,512H59c-26.45,0-48-21.53-48-48V240c0-26.47,21.55-48,48-48h288c26.45,0,48,21.53,48,48v224
	C395,490.47,373.45,512,347,512z M59,224c-8.81,0-16,7.17-16,16v224c0,8.83,7.19,16,16,16h288c8.81,0,16-7.17,16-16V240
	c0-8.83-7.19-16-16-16H59z"/>
<path class="st0" d="M315,224c-8.83,0-16-7.17-16-16v-80c0-52.93-43.07-96-96-96s-96,43.07-96,96v80c0,8.83-7.17,16-16,16
	s-16-7.17-16-16v-80C75,57.41,132.41,0,203,0s128,57.41,128,128v80C331,216.83,323.83,224,315,224z"/>
<path class="st0" d="M203,362.67c-23.53,0-42.67-19.14-42.67-42.67c0-23.53,19.14-42.67,42.67-42.67s42.67,19.14,42.67,42.67
	C245.67,343.53,226.53,362.67,203,362.67z M203,309.33c-5.87,0-10.67,4.78-10.67,10.67s4.8,10.67,10.67,10.67
	c5.87,0,10.67-4.78,10.67-10.67S208.87,309.33,203,309.33z"/>
<path class="st0" d="M203,426.67c-8.83,0-16-7.17-16-16V352c0-8.83,7.17-16,16-16c8.83,0,16,7.17,16,16v58.67
	C219,419.5,211.83,426.67,203,426.67z"/>
</svg>
