<?xml version="1.0" encoding="utf-8"?>
<!-- Generator: Adobe Illustrator 23.1.0, SVG Export Plug-In . SVG Version: 6.00 Build 0)  -->
<svg version="1.1" id="Layer_1" xmlns="http://www.w3.org/2000/svg" xmlns:xlink="http://www.w3.org/1999/xlink" x="0px" y="0px"
	 viewBox="0 0 512 512" style="enable-background:new 0 0 512 512;" xml:space="preserve">
<style type="text/css">
	.st0{fill:#02457A;}
</style>
<path class="st0" d="M256,0C114.84,0,0,114.84,0,256s114.84,256,256,256s256-114.84,256-256S397.16,0,256,0z M368,277.33h-90.67V368
	c0,11.78-9.55,21.33-21.33,21.33s-21.33-9.55-21.33-21.33v-90.67H144c-11.78,0-21.33-9.55-21.33-21.33s9.55-21.33,21.33-21.33h90.67
	V144c0-11.78,9.55-21.33,21.33-21.33s21.33,9.55,21.33,21.33v90.67H368c11.78,0,21.33,9.55,21.33,21.33S379.78,277.33,368,277.33z"
	/>
</svg>
