<svg xmlns="http://www.w3.org/2000/svg" width="16.944" height="18.958" viewBox="0 0 16.944 18.958">
  <defs>
    <style>
      .cls-1 {
        fill: #1c256b;
      }

      .cls-2 {
        fill: #e13b56;
      }
    </style>
  </defs>
  <g id="Group" transform="translate(-15.5 -11.4)">
    <path id="Compound_Path" data-name="Compound Path" class="cls-1" d="M28.466,11.4H21.639a2.21,2.21,0,0,0-2.21,2.21v.246H17.71a2.21,2.21,0,0,0-2.21,2.21V28.147a2.21,2.21,0,0,0,2.21,2.21H26.3a2.21,2.21,0,0,0,2.21-2.21V27.9h1.719a2.21,2.21,0,0,0,2.21-2.21V15.451a.221.221,0,0,0-.074-.172l-3.733-3.806a.221.221,0,0,0-.172-.074Zm.221.81,3.094,3.168H29.424a.712.712,0,0,1-.737-.737Zm-.663,15.937A1.719,1.719,0,0,1,26.3,29.866H17.71a1.719,1.719,0,0,1-1.719-1.719V16.065a1.719,1.719,0,0,1,1.719-1.719h1.719V25.692a2.21,2.21,0,0,0,2.21,2.21h6.385Zm2.21-.737H21.639a1.719,1.719,0,0,1-1.719-1.719V13.61a1.719,1.719,0,0,1,1.719-1.719H28.2v2.75a1.228,1.228,0,0,0,1.228,1.228h2.529v9.823a1.719,1.719,0,0,1-1.719,1.719Z"/>
    <path id="Path" class="cls-2" d="M48.318,44.992H46.771v.491h.982L45.518,47.89l-1.915-1.3a.221.221,0,0,0-.319.025L41,48.872l.344.344L43.48,47.1l1.94,1.3a.221.221,0,0,0,.319-.025l2.333-2.5-.049.909h.491l.049-1.547a.2.2,0,0,0-.049-.2A.27.27,0,0,0,48.318,44.992Z" transform="translate(-19.238 -25.341)"/>
  </g>
</svg>
